<mxfile host="app.diagrams.net" modified="2022-06-14T04:09:58.115Z" agent="5.0 (Windows NT 10.0; Win64; x64) AppleWebKit/537.36 (KHTML, like Gecko) Chrome/102.0.5005.63 Safari/537.36" etag="5E2v09vcBQA9KTZAXMB5" version="18.1.3" type="github">
  <diagram id="cqaqGsD59M7F9h99XoAH" name="Page-1">
    <mxGraphModel dx="1422" dy="697" grid="1" gridSize="10" guides="1" tooltips="1" connect="1" arrows="1" fold="1" page="1" pageScale="1" pageWidth="850" pageHeight="1100" math="0" shadow="0">
      <root>
        <mxCell id="0" />
        <mxCell id="1" parent="0" />
        <mxCell id="TNFZYBEuzaMFfgwZHJ6w-8" style="edgeStyle=orthogonalEdgeStyle;rounded=0;orthogonalLoop=1;jettySize=auto;html=1;entryX=0.5;entryY=1;entryDx=0;entryDy=0;" edge="1" parent="1" source="TNFZYBEuzaMFfgwZHJ6w-2" target="TNFZYBEuzaMFfgwZHJ6w-4">
          <mxGeometry relative="1" as="geometry" />
        </mxCell>
        <mxCell id="TNFZYBEuzaMFfgwZHJ6w-9" style="edgeStyle=orthogonalEdgeStyle;rounded=0;orthogonalLoop=1;jettySize=auto;html=1;exitX=0.75;exitY=0;exitDx=0;exitDy=0;entryX=0;entryY=0.5;entryDx=0;entryDy=0;" edge="1" parent="1" source="TNFZYBEuzaMFfgwZHJ6w-2" target="TNFZYBEuzaMFfgwZHJ6w-5">
          <mxGeometry relative="1" as="geometry">
            <Array as="points">
              <mxPoint x="450" y="250" />
              <mxPoint x="500" y="250" />
            </Array>
          </mxGeometry>
        </mxCell>
        <mxCell id="TNFZYBEuzaMFfgwZHJ6w-10" style="edgeStyle=orthogonalEdgeStyle;rounded=0;orthogonalLoop=1;jettySize=auto;html=1;entryX=0.43;entryY=-0.025;entryDx=0;entryDy=0;entryPerimeter=0;" edge="1" parent="1" source="TNFZYBEuzaMFfgwZHJ6w-2" target="TNFZYBEuzaMFfgwZHJ6w-6">
          <mxGeometry relative="1" as="geometry">
            <Array as="points">
              <mxPoint x="495" y="280" />
              <mxPoint x="495" y="270" />
              <mxPoint x="543" y="270" />
            </Array>
          </mxGeometry>
        </mxCell>
        <mxCell id="TNFZYBEuzaMFfgwZHJ6w-11" style="edgeStyle=orthogonalEdgeStyle;rounded=0;orthogonalLoop=1;jettySize=auto;html=1;exitX=0.5;exitY=1;exitDx=0;exitDy=0;entryX=0.29;entryY=0;entryDx=0;entryDy=0;entryPerimeter=0;" edge="1" parent="1" source="TNFZYBEuzaMFfgwZHJ6w-2" target="TNFZYBEuzaMFfgwZHJ6w-7">
          <mxGeometry relative="1" as="geometry" />
        </mxCell>
        <mxCell id="TNFZYBEuzaMFfgwZHJ6w-2" value="producto" style="rounded=1;arcSize=10;whiteSpace=wrap;html=1;align=center;fillColor=#d5e8d4;strokeColor=#82b366;" vertex="1" parent="1">
          <mxGeometry x="375" y="260" width="100" height="40" as="geometry" />
        </mxCell>
        <mxCell id="TNFZYBEuzaMFfgwZHJ6w-4" value="codigo" style="ellipse;whiteSpace=wrap;html=1;align=center;fontStyle=4;fillColor=#dae8fc;strokeColor=#6c8ebf;" vertex="1" parent="1">
          <mxGeometry x="400" y="170" width="100" height="40" as="geometry" />
        </mxCell>
        <mxCell id="TNFZYBEuzaMFfgwZHJ6w-5" value="descripcion" style="ellipse;whiteSpace=wrap;html=1;align=center;fillColor=#e1d5e7;strokeColor=#9673a6;" vertex="1" parent="1">
          <mxGeometry x="500" y="210" width="100" height="40" as="geometry" />
        </mxCell>
        <mxCell id="TNFZYBEuzaMFfgwZHJ6w-6" value="precio" style="ellipse;whiteSpace=wrap;html=1;align=center;fillColor=#e1d5e7;strokeColor=#9673a6;" vertex="1" parent="1">
          <mxGeometry x="500" y="280" width="100" height="40" as="geometry" />
        </mxCell>
        <mxCell id="TNFZYBEuzaMFfgwZHJ6w-7" value="fabricante" style="ellipse;whiteSpace=wrap;html=1;align=center;fillColor=#e1d5e7;strokeColor=#9673a6;" vertex="1" parent="1">
          <mxGeometry x="400" y="330" width="100" height="40" as="geometry" />
        </mxCell>
        <mxCell id="TNFZYBEuzaMFfgwZHJ6w-12" value="DB tienda_informatica" style="whiteSpace=wrap;html=1;align=center;fillColor=#fff2cc;strokeColor=#d6b656;" vertex="1" parent="1">
          <mxGeometry x="350" y="60" width="260" height="40" as="geometry" />
        </mxCell>
      </root>
    </mxGraphModel>
  </diagram>
</mxfile>
